<svg xmlns="http://www.w3.org/2000/svg" width="48" height="10" viewBox="0 0 48 10" fill="none">
    <path
        d="M8.47896 3.32812H6.61249C6.5784 3.08665 6.50879 2.87216 6.40368 2.68466C6.29857 2.49432 6.16362 2.33239 5.99885 2.19886C5.83408 2.06534 5.64374 1.96307 5.42783 1.89205C5.21476 1.82102 4.98323 1.78551 4.73323 1.78551C4.28152 1.78551 3.88805 1.89773 3.55283 2.12216C3.2176 2.34375 2.95766 2.66761 2.773 3.09375C2.58834 3.51705 2.49601 4.03125 2.49601 4.63636C2.49601 5.25852 2.58834 5.78125 2.773 6.20455C2.9605 6.62784 3.22186 6.94744 3.55709 7.16335C3.89232 7.37926 4.2801 7.48722 4.72044 7.48722C4.9676 7.48722 5.19629 7.45455 5.40652 7.3892C5.61959 7.32386 5.80851 7.22869 5.97328 7.10369C6.13805 6.97585 6.27442 6.82102 6.38237 6.6392C6.49317 6.45739 6.56987 6.25 6.61249 6.01705L8.47896 6.02557C8.43067 6.42614 8.30993 6.8125 8.11675 7.18466C7.92641 7.55398 7.6693 7.88494 7.34544 8.17756C7.02442 8.46733 6.6409 8.69744 6.19487 8.8679C5.75169 9.03551 5.25027 9.11932 4.69061 9.11932C3.9122 9.11932 3.21618 8.94318 2.60254 8.59091C1.99175 8.23864 1.50879 7.72869 1.15368 7.06108C0.801407 6.39347 0.625271 5.58523 0.625271 4.63636C0.625271 3.68466 0.804248 2.875 1.1622 2.20739C1.52016 1.53977 2.00595 1.03125 2.61959 0.681818C3.23323 0.329545 3.92357 0.153409 4.69061 0.153409C5.19629 0.153409 5.66504 0.224432 6.09686 0.366477C6.53152 0.508523 6.91646 0.715909 7.25169 0.988636C7.58692 1.25852 7.85965 1.58949 8.06987 1.98153C8.28294 2.37358 8.4193 2.82244 8.47896 3.32812ZM12.8554 9.12784C12.1935 9.12784 11.621 8.98722 11.1381 8.70597C10.658 8.42187 10.2872 8.02699 10.0259 7.52131C9.7645 7.01278 9.63382 6.4233 9.63382 5.75284C9.63382 5.0767 9.7645 4.4858 10.0259 3.98011C10.2872 3.47159 10.658 3.0767 11.1381 2.79545C11.621 2.51136 12.1935 2.36932 12.8554 2.36932C13.5173 2.36932 14.0884 2.51136 14.5685 2.79545C15.0514 3.0767 15.4236 3.47159 15.685 3.98011C15.9463 4.4858 16.077 5.0767 16.077 5.75284C16.077 6.4233 15.9463 7.01278 15.685 7.52131C15.4236 8.02699 15.0514 8.42187 14.5685 8.70597C14.0884 8.98722 13.5173 9.12784 12.8554 9.12784ZM12.8639 7.72159C13.1651 7.72159 13.4165 7.63636 13.6182 7.46591C13.8199 7.29261 13.9719 7.05682 14.0742 6.75852C14.1793 6.46023 14.2318 6.12074 14.2318 5.74006C14.2318 5.35938 14.1793 5.01989 14.0742 4.72159C13.9719 4.4233 13.8199 4.1875 13.6182 4.0142C13.4165 3.84091 13.1651 3.75426 12.8639 3.75426C12.56 3.75426 12.3043 3.84091 12.0969 4.0142C11.8923 4.1875 11.7375 4.4233 11.6324 4.72159C11.5301 5.01989 11.479 5.35938 11.479 5.74006C11.479 6.12074 11.5301 6.46023 11.6324 6.75852C11.7375 7.05682 11.8923 7.29261 12.0969 7.46591C12.3043 7.63636 12.56 7.72159 12.8639 7.72159ZM19.2027 5.21591V9H17.3874V2.45455H19.1175V3.60938H19.1942C19.3391 3.22869 19.582 2.92756 19.9229 2.70597C20.2638 2.48153 20.6772 2.36932 21.163 2.36932C21.6175 2.36932 22.0138 2.46875 22.3519 2.66761C22.69 2.86648 22.9527 3.15057 23.1402 3.51989C23.3277 3.88636 23.4215 4.32386 23.4215 4.83239V9H21.6062V5.15625C21.609 4.75568 21.5067 4.44318 21.2993 4.21875C21.0919 3.99148 20.8064 3.87784 20.4428 3.87784C20.1985 3.87784 19.9826 3.9304 19.7951 4.03551C19.6104 4.14062 19.4655 4.29403 19.3604 4.49574C19.2581 4.6946 19.2056 4.93466 19.2027 5.21591ZM28.4638 2.45455V3.81818H24.522V2.45455H28.4638ZM25.4169 0.886364H27.2322V6.98864C27.2322 7.15625 27.2578 7.28693 27.3089 7.38068C27.3601 7.47159 27.4311 7.53551 27.522 7.57244C27.6158 7.60937 27.7237 7.62784 27.8459 7.62784C27.9311 7.62784 28.0163 7.62074 28.1016 7.60653C28.1868 7.58949 28.2521 7.5767 28.2976 7.56818L28.5831 8.91903C28.4922 8.94744 28.3643 8.98011 28.1996 9.01705C28.0348 9.05682 27.8345 9.08097 27.5987 9.08949C27.1612 9.10653 26.7777 9.0483 26.4482 8.91477C26.1214 8.78125 25.8672 8.57386 25.6854 8.29261C25.5036 8.01136 25.4141 7.65625 25.4169 7.22727V0.886364ZM31.6428 9.12358C31.2252 9.12358 30.853 9.05114 30.5263 8.90625C30.1996 8.75852 29.9411 8.54119 29.7507 8.25426C29.5632 7.96449 29.4695 7.60369 29.4695 7.17188C29.4695 6.80824 29.5363 6.50284 29.6698 6.25568C29.8033 6.00852 29.9851 5.80966 30.2152 5.65909C30.4453 5.50852 30.7067 5.39489 30.9993 5.31818C31.2948 5.24148 31.6044 5.1875 31.9283 5.15625C32.309 5.11648 32.6158 5.07955 32.8488 5.04545C33.0817 5.00852 33.2507 4.95455 33.3559 4.88352C33.461 4.8125 33.5135 4.70739 33.5135 4.56818V4.54261C33.5135 4.27273 33.4283 4.06392 33.2578 3.91619C33.0902 3.76847 32.8516 3.6946 32.5419 3.6946C32.2152 3.6946 31.9553 3.76705 31.7621 3.91193C31.5689 4.05398 31.4411 4.23295 31.3786 4.44886L29.6996 4.3125C29.7848 3.91477 29.9524 3.57102 30.2024 3.28125C30.4524 2.98864 30.7749 2.7642 31.1698 2.60795C31.5675 2.44886 32.0277 2.36932 32.5505 2.36932C32.9141 2.36932 33.2621 2.41193 33.5945 2.49716C33.9297 2.58239 34.2266 2.71449 34.4851 2.89347C34.7465 3.07244 34.9524 3.30256 35.103 3.58381C35.2536 3.86222 35.3289 4.19602 35.3289 4.58523V9H33.6073V8.09233H33.5561C33.451 8.29688 33.3104 8.47727 33.1343 8.63352C32.9581 8.78693 32.7465 8.90767 32.4993 8.99574C32.2522 9.08097 31.9666 9.12358 31.6428 9.12358ZM32.1627 7.87074C32.4297 7.87074 32.6655 7.81818 32.8701 7.71307C33.0746 7.60511 33.2351 7.46023 33.3516 7.27841C33.4681 7.09659 33.5263 6.89062 33.5263 6.66051V5.96591C33.4695 6.00284 33.3914 6.03693 33.2919 6.06818C33.1953 6.09659 33.086 6.12358 32.9638 6.14915C32.8416 6.17187 32.7195 6.19318 32.5973 6.21307C32.4752 6.23011 32.3644 6.24574 32.2649 6.25994C32.0519 6.29119 31.8658 6.34091 31.7067 6.40909C31.5476 6.47727 31.424 6.5696 31.336 6.68608C31.2479 6.79972 31.2039 6.94176 31.2039 7.11222C31.2039 7.35938 31.2934 7.5483 31.4723 7.67898C31.6541 7.80682 31.8843 7.87074 32.1627 7.87074ZM39.8246 9.12784C39.1542 9.12784 38.5775 8.9858 38.0945 8.7017C37.6144 8.41477 37.2451 8.01705 36.9866 7.50852C36.7309 7 36.603 6.41477 36.603 5.75284C36.603 5.08239 36.7323 4.49432 36.9908 3.98864C37.2522 3.48011 37.6229 3.08381 38.103 2.79972C38.5832 2.51278 39.1542 2.36932 39.8161 2.36932C40.3871 2.36932 40.8871 2.47301 41.3161 2.6804C41.7451 2.88778 42.0846 3.17898 42.3346 3.55398C42.5846 3.92898 42.7224 4.36932 42.7479 4.875H41.0349C40.9866 4.5483 40.8587 4.28551 40.6513 4.08665C40.4468 3.88494 40.1783 3.78409 39.8459 3.78409C39.5647 3.78409 39.319 3.8608 39.1087 4.0142C38.9013 4.16477 38.7394 4.38494 38.6229 4.67472C38.5065 4.96449 38.4482 5.31534 38.4482 5.72727C38.4482 6.14489 38.505 6.5 38.6187 6.79261C38.7351 7.08523 38.8985 7.30824 39.1087 7.46165C39.319 7.61506 39.5647 7.69176 39.8459 7.69176C40.0533 7.69176 40.2394 7.64915 40.4042 7.56392C40.5718 7.47869 40.7096 7.35511 40.8175 7.19318C40.9283 7.02841 41.0008 6.83097 41.0349 6.60085H42.7479C42.7195 7.10085 42.5832 7.54119 42.3388 7.92188C42.0974 8.29972 41.7636 8.59517 41.3374 8.80824C40.9113 9.02131 40.407 9.12784 39.8246 9.12784ZM47.5217 2.45455V3.81818H43.58V2.45455H47.5217ZM44.4749 0.886364H46.2902V6.98864C46.2902 7.15625 46.3158 7.28693 46.3669 7.38068C46.4181 7.47159 46.4891 7.53551 46.58 7.57244C46.6737 7.60937 46.7817 7.62784 46.9038 7.62784C46.9891 7.62784 47.0743 7.62074 47.1595 7.60653C47.2448 7.58949 47.3101 7.5767 47.3556 7.56818L47.6411 8.91903C47.5502 8.94744 47.4223 8.98011 47.2575 9.01705C47.0928 9.05682 46.8925 9.08097 46.6567 9.08949C46.2192 9.10653 45.8357 9.0483 45.5061 8.91477C45.1794 8.78125 44.9252 8.57386 44.7433 8.29261C44.5615 8.01136 44.472 7.65625 44.4749 7.22727V0.886364Z"
        fill="white" />
</svg>