<svg xmlns="http://www.w3.org/2000/svg" width="39" height="39" viewBox="0 0 39 39" fill="none">
    <path
        d="M0.705386 27.4264L6.74237 21.3894L8.26677 22.9864L4.18206 27.0711L3.82851 27.4246L4.18206 27.7782L10.4054 34.0015L10.7589 34.355L11.1125 34.0015L17.1248 27.9891L17.4783 27.6356L17.1248 27.282L0.812586 10.9698L10.8644 0.918044L16.7051 6.75879L15.1764 8.36033L11.2135 4.49414L10.86 4.14926L10.5108 4.49848L4.4985 10.5108L4.14718 10.8621L4.49627 11.2157L20.7075 27.6334L10.7606 37.5802L0.705386 27.4264Z"
        stroke="white" />
    <path
        d="M27.5264 0.703405L37.5819 10.7589L29.708 18.6327L29.3545 18.9863L29.708 19.3399L37.7894 27.4212L27.5363 37.4771L21.5892 31.4357L23.2054 29.8194L27.282 33.896L27.6356 34.2496L27.9891 33.896L34.0014 27.8837L34.3572 27.5279L33.9992 27.1744L25.9189 19.195L34.0014 11.1125L34.355 10.7589L34.0014 10.4054L27.8836 4.28754L27.5301 3.93399L27.1765 4.28754L20.4258 11.0382L20.2794 11.1847V11.3918V22.4203L17.9041 20.0449V10.1253L27.5264 0.703405Z"
        stroke="white" />
</svg>