<svg width="191" height="77" viewBox="0 0 191 77" fill="none" xmlns="http://www.w3.org/2000/svg">
<g filter="url(#filter0_d_111_191)">
<path d="M8 0H152.5C169.345 0 183 13.6553 183 30.5C183 47.3447 169.345 61 152.5 61H58C30.3858 61 8 38.6142 8 11V0Z" fill="#06A3C6"/>
<path d="M48.4289 30.2191V31.1175C48.4289 32.1852 48.2954 33.1422 48.0285 33.9886C47.7615 34.8349 47.3774 35.5543 46.8761 36.1468C46.3748 36.7392 45.7726 37.1917 45.0695 37.5042C44.3729 37.8167 43.5916 37.973 42.7257 37.973C41.8859 37.973 41.1144 37.8167 40.4113 37.5042C39.7147 37.1917 39.1092 36.7392 38.5949 36.1468C38.0871 35.5543 37.6932 34.8349 37.4132 33.9886C37.1333 33.1422 36.9933 32.1852 36.9933 31.1175V30.2191C36.9933 29.1513 37.13 28.1976 37.4035 27.3577C37.6834 26.5114 38.0773 25.792 38.5851 25.1995C39.0929 24.6006 39.6951 24.1448 40.3918 23.8323C41.0949 23.5198 41.8664 23.3636 42.7062 23.3636C43.5721 23.3636 44.3533 23.5198 45.05 23.8323C45.7531 24.1448 46.3553 24.6006 46.8566 25.1995C47.3644 25.792 47.7518 26.5114 48.0187 27.3577C48.2921 28.1976 48.4289 29.1513 48.4289 30.2191ZM46.5636 31.1175V30.1995C46.5636 29.3532 46.4757 28.6045 46.3 27.9534C46.1307 27.3024 45.88 26.7555 45.548 26.3128C45.216 25.8701 44.8091 25.5348 44.3273 25.3069C43.852 25.0791 43.3117 24.9651 42.7062 24.9651C42.1203 24.9651 41.5897 25.0791 41.1144 25.3069C40.6457 25.5348 40.242 25.8701 39.9035 26.3128C39.5714 26.7555 39.3143 27.3024 39.132 27.9534C38.9497 28.6045 38.8586 29.3532 38.8586 30.1995V31.1175C38.8586 31.9704 38.9497 32.7256 39.132 33.3831C39.3143 34.0342 39.5747 34.5843 39.9132 35.0335C40.2583 35.4762 40.6652 35.8115 41.1339 36.0394C41.6092 36.2672 42.1398 36.3812 42.7257 36.3812C43.3377 36.3812 43.8813 36.2672 44.3566 36.0394C44.8319 35.8115 45.2322 35.4762 45.5578 35.0335C45.8898 34.5843 46.1405 34.0342 46.3097 33.3831C46.479 32.7256 46.5636 31.9704 46.5636 31.1175ZM52.7843 29.2425V41.8401H50.9679V27.2112H52.6281L52.7843 29.2425ZM59.9035 32.4066V32.6116C59.9035 33.3799 59.8123 34.0928 59.63 34.7503C59.4477 35.4013 59.1808 35.9678 58.8293 36.4495C58.4842 36.9313 58.0578 37.3056 57.55 37.5726C57.0421 37.8395 56.4595 37.973 55.8019 37.973C55.1313 37.973 54.5389 37.8623 54.0246 37.6409C53.5102 37.4196 53.074 37.0973 52.716 36.6741C52.3579 36.251 52.0714 35.7431 51.8566 35.1507C51.6483 34.5582 51.505 33.8909 51.4269 33.1487V32.055C51.505 31.2737 51.6515 30.5739 51.8664 29.9554C52.0812 29.3369 52.3644 28.8095 52.716 28.3734C53.074 27.9306 53.507 27.5954 54.0148 27.3675C54.5226 27.1331 55.1086 27.0159 55.7726 27.0159C56.4367 27.0159 57.0259 27.1461 57.5402 27.4066C58.0545 27.6605 58.4875 28.025 58.839 28.5003C59.1906 28.9756 59.4543 29.5452 59.63 30.2093C59.8123 30.8668 59.9035 31.5993 59.9035 32.4066ZM58.0871 32.6116V32.4066C58.0871 31.8792 58.0317 31.3844 57.9211 30.9222C57.8104 30.4534 57.6378 30.0433 57.4035 29.6917C57.1756 29.3336 56.8826 29.0537 56.5246 28.8519C56.1665 28.6435 55.7401 28.5394 55.2453 28.5394C54.7895 28.5394 54.3924 28.6175 54.0539 28.7737C53.7218 28.93 53.4386 29.1416 53.2043 29.4085C52.9699 29.6689 52.7778 29.9684 52.6281 30.3069C52.4849 30.639 52.3774 30.984 52.3058 31.3421V33.8714C52.436 34.3271 52.6183 34.7568 52.8527 35.1605C53.0871 35.5576 53.3996 35.8799 53.7902 36.1273C54.1808 36.3681 54.6724 36.4886 55.2648 36.4886C55.7531 36.4886 56.173 36.3877 56.5246 36.1859C56.8826 35.9775 57.1756 35.6943 57.4035 35.3362C57.6378 34.9782 57.8104 34.568 57.9211 34.1058C58.0317 33.637 58.0871 33.139 58.0871 32.6116ZM66.5929 37.973C65.8572 37.973 65.1899 37.8493 64.591 37.6019C63.9985 37.348 63.4875 36.9931 63.0578 36.5374C62.6346 36.0817 62.3091 35.5413 62.0812 34.9163C61.8533 34.2913 61.7394 33.6077 61.7394 32.8655V32.4554C61.7394 31.596 61.8664 30.831 62.1203 30.1605C62.3742 29.4834 62.7192 28.9105 63.1554 28.4417C63.5916 27.973 64.0864 27.6181 64.6398 27.3773C65.1932 27.1364 65.7661 27.0159 66.3586 27.0159C67.1138 27.0159 67.7648 27.1461 68.3117 27.4066C68.8651 27.667 69.3175 28.0316 69.6691 28.5003C70.0207 28.9625 70.2811 29.5094 70.4503 30.1409C70.6196 30.7659 70.7043 31.4495 70.7043 32.1917V33.0023H62.8136V31.5276H68.8976V31.3909C68.8716 30.9222 68.7739 30.4665 68.6046 30.0237C68.4419 29.581 68.1815 29.2165 67.8234 28.93C67.4653 28.6435 66.977 28.5003 66.3586 28.5003C65.9484 28.5003 65.5708 28.5882 65.2257 28.764C64.8807 28.9332 64.5845 29.1872 64.3371 29.5257C64.0897 29.8642 63.8976 30.2776 63.7609 30.7659C63.6242 31.2542 63.5558 31.8174 63.5558 32.4554V32.8655C63.5558 33.3668 63.6242 33.8388 63.7609 34.2816C63.9041 34.7178 64.1092 35.1019 64.3761 35.4339C64.6496 35.7659 64.9783 36.0263 65.3625 36.2151C65.7531 36.404 66.1958 36.4984 66.6906 36.4984C67.3286 36.4984 67.869 36.3681 68.3117 36.1077C68.7544 35.8473 69.1418 35.499 69.4738 35.0628L70.5675 35.9319C70.3397 36.277 70.05 36.6058 69.6984 36.9183C69.3468 37.2308 68.9139 37.4847 68.3996 37.68C67.8918 37.8753 67.2895 37.973 66.5929 37.973ZM74.6203 29.4671V37.7776H72.8136V27.2112H74.5226L74.6203 29.4671ZM74.1906 32.0941L73.4386 32.0648C73.4451 31.3421 73.5526 30.6748 73.7609 30.0628C73.9692 29.4443 74.2622 28.9072 74.6398 28.4515C75.0174 27.9957 75.4666 27.6442 75.9875 27.3968C76.5148 27.1429 77.0975 27.0159 77.7355 27.0159C78.2563 27.0159 78.7251 27.0875 79.1418 27.2308C79.5584 27.3675 79.9132 27.5888 80.2062 27.8948C80.5057 28.2008 80.7336 28.598 80.8898 29.0862C81.0461 29.568 81.1242 30.1572 81.1242 30.8538V37.7776H79.3078V30.8343C79.3078 30.2809 79.2264 29.8382 79.0636 29.5062C78.9009 29.1676 78.6632 28.9235 78.3507 28.7737C78.0382 28.6175 77.6541 28.5394 77.1984 28.5394C76.7492 28.5394 76.339 28.6338 75.9679 28.8226C75.6033 29.0114 75.2876 29.2718 75.0207 29.6038C74.7602 29.9359 74.5552 30.3167 74.4054 30.7464C74.2622 31.1696 74.1906 31.6188 74.1906 32.0941ZM93.2531 27.2112V28.598H87.5402V27.2112H93.2531ZM89.4738 24.6429H91.2804V35.1605C91.2804 35.5185 91.3358 35.7887 91.4464 35.971C91.5571 36.1533 91.7003 36.2737 91.8761 36.3323C92.0519 36.3909 92.2407 36.4202 92.4425 36.4202C92.5923 36.4202 92.7485 36.4072 92.9113 36.3812C93.0806 36.3486 93.2075 36.3226 93.2921 36.303L93.3019 37.7776C93.1587 37.8232 92.9699 37.8655 92.7355 37.9046C92.5076 37.9502 92.2309 37.973 91.9054 37.973C91.4627 37.973 91.0558 37.8851 90.6847 37.7093C90.3136 37.5335 90.0174 37.2405 89.7961 36.8304C89.5812 36.4137 89.4738 35.8538 89.4738 35.1507V24.6429ZM94.6984 32.6116V32.387C94.6984 31.6253 94.8091 30.9189 95.0304 30.2679C95.2518 29.6103 95.5708 29.0407 95.9875 28.5589C96.4041 28.0706 96.9087 27.693 97.5011 27.4261C98.0936 27.1526 98.7576 27.0159 99.4933 27.0159C100.236 27.0159 100.903 27.1526 101.495 27.4261C102.094 27.693 102.602 28.0706 103.019 28.5589C103.442 29.0407 103.764 29.6103 103.986 30.2679C104.207 30.9189 104.318 31.6253 104.318 32.387V32.6116C104.318 33.3734 104.207 34.0797 103.986 34.7308C103.764 35.3818 103.442 35.9515 103.019 36.4398C102.602 36.9215 102.097 37.2991 101.505 37.5726C100.919 37.8395 100.255 37.973 99.5128 37.973C98.7707 37.973 98.1033 37.8395 97.5109 37.5726C96.9184 37.2991 96.4106 36.9215 95.9875 36.4398C95.5708 35.9515 95.2518 35.3818 95.0304 34.7308C94.8091 34.0797 94.6984 33.3734 94.6984 32.6116ZM96.505 32.387V32.6116C96.505 33.139 96.5669 33.637 96.6906 34.1058C96.8143 34.568 96.9998 34.9782 97.2472 35.3362C97.5011 35.6943 97.8169 35.9775 98.1945 36.1859C98.5721 36.3877 99.0115 36.4886 99.5128 36.4886C100.008 36.4886 100.441 36.3877 100.812 36.1859C101.189 35.9775 101.502 35.6943 101.749 35.3362C101.997 34.9782 102.182 34.568 102.306 34.1058C102.436 33.637 102.501 33.139 102.501 32.6116V32.387C102.501 31.8662 102.436 31.3747 102.306 30.9124C102.182 30.4437 101.993 30.0303 101.739 29.6722C101.492 29.3076 101.18 29.0211 100.802 28.8128C100.431 28.6045 99.9946 28.5003 99.4933 28.5003C98.9985 28.5003 98.5623 28.6045 98.1847 28.8128C97.8136 29.0211 97.5011 29.3076 97.2472 29.6722C96.9998 30.0303 96.8143 30.4437 96.6906 30.9124C96.5669 31.3747 96.505 31.8662 96.505 32.387ZM114.22 35.9026L116.935 27.2112H118.126L117.892 28.9398L115.128 37.7776H113.966L114.22 35.9026ZM112.394 27.2112L114.708 36.0003L114.874 37.7776H113.653L110.587 27.2112H112.394ZM120.724 35.9319L122.931 27.2112H124.728L121.661 37.7776H120.45L120.724 35.9319ZM118.39 27.2112L121.046 35.7562L121.349 37.7776H120.196L117.355 28.9202L117.12 27.2112H118.39ZM126.105 32.6116V32.387C126.105 31.6253 126.215 30.9189 126.437 30.2679C126.658 29.6103 126.977 29.0407 127.394 28.5589C127.81 28.0706 128.315 27.693 128.907 27.4261C129.5 27.1526 130.164 27.0159 130.9 27.0159C131.642 27.0159 132.309 27.1526 132.902 27.4261C133.5 27.693 134.008 28.0706 134.425 28.5589C134.848 29.0407 135.17 29.6103 135.392 30.2679C135.613 30.9189 135.724 31.6253 135.724 32.387V32.6116C135.724 33.3734 135.613 34.0797 135.392 34.7308C135.17 35.3818 134.848 35.9515 134.425 36.4398C134.008 36.9215 133.504 37.2991 132.911 37.5726C132.325 37.8395 131.661 37.973 130.919 37.973C130.177 37.973 129.51 37.8395 128.917 37.5726C128.325 37.2991 127.817 36.9215 127.394 36.4398C126.977 35.9515 126.658 35.3818 126.437 34.7308C126.215 34.0797 126.105 33.3734 126.105 32.6116ZM127.911 32.387V32.6116C127.911 33.139 127.973 33.637 128.097 34.1058C128.221 34.568 128.406 34.9782 128.653 35.3362C128.907 35.6943 129.223 35.9775 129.601 36.1859C129.978 36.3877 130.418 36.4886 130.919 36.4886C131.414 36.4886 131.847 36.3877 132.218 36.1859C132.596 35.9775 132.908 35.6943 133.155 35.3362C133.403 34.9782 133.588 34.568 133.712 34.1058C133.842 33.637 133.907 33.139 133.907 32.6116V32.387C133.907 31.8662 133.842 31.3747 133.712 30.9124C133.588 30.4437 133.4 30.0303 133.146 29.6722C132.898 29.3076 132.586 29.0211 132.208 28.8128C131.837 28.6045 131.401 28.5003 130.9 28.5003C130.405 28.5003 129.969 28.6045 129.591 28.8128C129.22 29.0211 128.907 29.3076 128.653 29.6722C128.406 30.0303 128.221 30.4437 128.097 30.9124C127.973 31.3747 127.911 31.8662 127.911 32.387ZM139.796 28.8714V37.7776H137.989V27.2112H139.747L139.796 28.8714ZM143.097 27.1526L143.087 28.8323C142.937 28.7998 142.794 28.7803 142.657 28.7737C142.527 28.7607 142.377 28.7542 142.208 28.7542C141.791 28.7542 141.424 28.8193 141.105 28.9495C140.786 29.0797 140.515 29.262 140.294 29.4964C140.073 29.7308 139.897 30.0107 139.767 30.3362C139.643 30.6553 139.562 31.0068 139.523 31.3909L139.015 31.6839C139.015 31.0459 139.077 30.4469 139.2 29.887C139.331 29.3271 139.529 28.8323 139.796 28.4026C140.063 27.9665 140.402 27.6279 140.812 27.387C141.228 27.1396 141.723 27.0159 142.296 27.0159C142.426 27.0159 142.576 27.0322 142.745 27.0648C142.915 27.0908 143.032 27.1201 143.097 27.1526ZM146.583 22.7776V37.7776H144.767V22.7776H146.583ZM153.038 27.2112L148.429 32.1429L145.851 34.8187L145.704 32.8948L147.55 30.6878L150.831 27.2112H153.038ZM151.388 37.7776L147.618 32.7386L148.556 31.1273L153.517 37.7776H151.388ZM157.052 23.5589L156.925 33.764H155.294L155.157 23.5589H157.052ZM155.099 36.8694C155.099 36.5765 155.187 36.3291 155.362 36.1273C155.545 35.9254 155.812 35.8245 156.163 35.8245C156.508 35.8245 156.772 35.9254 156.954 36.1273C157.143 36.3291 157.237 36.5765 157.237 36.8694C157.237 37.1494 157.143 37.3903 156.954 37.5921C156.772 37.7939 156.508 37.8948 156.163 37.8948C155.812 37.8948 155.545 37.7939 155.362 37.5921C155.187 37.3903 155.099 37.1494 155.099 36.8694Z" fill="white"/>
</g>
<defs>
<filter id="filter0_d_111_191" x="0" y="0" width="191" height="77" filterUnits="userSpaceOnUse" color-interpolation-filters="sRGB">
<feFlood flood-opacity="0" result="BackgroundImageFix"/>
<feColorMatrix in="SourceAlpha" type="matrix" values="0 0 0 0 0 0 0 0 0 0 0 0 0 0 0 0 0 0 127 0" result="hardAlpha"/>
<feOffset dy="8"/>
<feGaussianBlur stdDeviation="4"/>
<feComposite in2="hardAlpha" operator="out"/>
<feColorMatrix type="matrix" values="0 0 0 0 0 0 0 0 0 0 0 0 0 0 0 0 0 0 0.15 0"/>
<feBlend mode="normal" in2="BackgroundImageFix" result="effect1_dropShadow_111_191"/>
<feBlend mode="normal" in="SourceGraphic" in2="effect1_dropShadow_111_191" result="shape"/>
</filter>
</defs>
</svg>
